<?xml version="1.0" encoding="iso-8859-1"?>
<!-- Generator: Adobe Illustrator 19.1.0, SVG Export Plug-In . SVG Version: 6.00 Build 0)  -->
<svg xmlns="http://www.w3.org/2000/svg" xmlns:xlink="http://www.w3.org/1999/xlink" version="1.1" id="Capa_1" x="0px" y="0px" viewBox="0 0 504.073 504.073" style="enable-background:new 0 0 504.073 504.073;" xml:space="preserve" width="512px" height="512px">
<g>
	<g>
		<path d="M423.061,0H153.022c-21.725,0-39.915,15.492-44.1,36.005h-27.91c-24.808,0-45.007,20.199-45.007,45.007v378.054    c0,24.808,20.199,45.007,45.007,45.007h270.039c21.725,0,39.915-15.493,44.1-36.005h27.91c24.808,0,45.007-20.199,45.007-45.006    V45.007C468.068,20.199,447.869,0,423.061,0z M378.055,459.067c0,14.888-12.116,27.004-27.004,27.004H81.012    c-14.888,0-27.004-12.116-27.004-27.004V81.012c0-14.888,12.116-27.004,27.004-27.004h270.039    c14.888,0,27.004,12.116,27.004,27.004V459.067z M450.065,423.061c0,14.888-12.116,27.004-27.004,27.004h-27.003V81.012    c0-24.808-20.199-45.007-45.007-45.007H127.567c3.717-10.476,13.723-18.002,25.455-18.002h270.039    c14.888,0,27.004,12.116,27.004,27.004V423.061z" fill="#2d73cf"/>
		<rect x="108.016" y="126.018" width="180.026" height="18.003" fill="#2d73cf"/>
		<rect x="108.016" y="180.026" width="180.026" height="18.003" fill="#2d73cf"/>
		<rect x="108.016" y="234.034" width="180.026" height="18.003" fill="#2d73cf"/>
	</g>
</g>
<g>
</g>
<g>
</g>
<g>
</g>
<g>
</g>
<g>
</g>
<g>
</g>
<g>
</g>
<g>
</g>
<g>
</g>
<g>
</g>
<g>
</g>
<g>
</g>
<g>
</g>
<g>
</g>
<g>
</g>
</svg>
